<?xml version="1.0" encoding="UTF-8"?>
<svg id="Layer_2" data-name="Layer 2" xmlns="http://www.w3.org/2000/svg" viewBox="0 0 360 360">
  <defs>
    <style>
      .cls-1 {
        fill: #fff;
      }

      .cls-2 {
        fill: #217dce;
      }
    </style>
  </defs>
  <g id="Layer_1-2" data-name="Layer 1">
    <polygon class="cls-1" points="360 360 180.9 360 0 360 0 180.34 0 0 178.22 0 360 0 360 181.36 360 360 360 360"/>
    <path class="cls-2" d="m360,360v-57.04h-43.43l-22.36-24.72-22.47,24.72h-143.19v-115.23h-46.22l57.33-129.74h55.29l19.74,44.45v-44.45h68.43l11.88,33.49,11.96-33.49h53.05V0H0v360h360Zm-36.11-71.47h36.11l-47.77-50.66,47.77-50.09h-35.54l-29.5,32.24-29.22-32.24h-36.12l47.49,50.37-47.49,50.37h35.12l29.65-32.53,29.51,32.53h0Zm8.45-50.62l27.67,29.43v-58.62l-27.67,29.19h0Zm-161.01,27.3v-15.69h56.85v-22.74h-56.85v-15.69h58.29v-23.32h-85.78v100.75h85.78v-23.32h-58.29Zm161.47-92.05h27.2v-100.75h-42.32l-22.6,62.75-22.45-62.75h-43.03v100.75h27.2v-70.52l25.91,70.52h24.18l25.91-70.67v70.67h0Zm-134.14,0h30.94l-44.47-100.75h-35.41l-44.48,100.75h30.23l8.35-20.15h46.34l8.49,20.15h0Zm-17.99-42.75h-27.35l13.67-32.96,13.67,32.96h0Z"/>
  </g>
</svg>