<?xml version="1.0" encoding="UTF-8"?>
<svg id="Layer_2" data-name="Layer 2" xmlns="http://www.w3.org/2000/svg" viewBox="0 0 892.98 297.91">
  <defs>
    <style>
      .cls-1 {
        fill: #fff;
      }

      .cls-2 {
        fill: #289bd7;
      }

      .cls-3 {
        fill: #85b840;
      }
    </style>
  </defs>
  <g id="Layer_1-2" data-name="Layer 1">
    <g>
      <path class="cls-1" d="m892.98,62.56c-.6,2.5-1.18,5.01-1.82,7.5-6,23.36-25.18,37.47-50.29,36.83-9.57-.24-18.93-1.67-28.13-4.69-3.1-1.02-7,.35-10.53.66-4.67.41-9.35,1.2-14.02,1.21-43.93.09-87.86.06-131.78.06h-4.8c1.1-7.25,2.13-14.08,3.13-20.68h55.17c-.34.42-.07.24-.07.06-.23-13.5-.37-27-.82-40.5-.08-2.51-1.16-5.07-2.15-7.46-3.54-8.58-10.01-12.98-19.34-13.02-7.32-.03-14.64,0-21.96-.01-1.32,0-2.64,0-4.38,0,.97-6.8,1.79-13.04,2.83-19.25.13-.75,1.4-1.89,2.12-1.87,12.39.23,24.93-.49,37.12,1.23,18.26,2.58,31.44,17.18,34.62,36.63,1.17,7.18,1.26,14.55,1.51,21.85.24,7.05.05,14.11.05,21.43,1.32.1,2.39.25,3.46.25,15.88.02,31.77-.09,47.65.09,3.27.04,4.52-1.4,4.85-4.18.23-1.96.26-3.96.27-5.94.02-13.28,0-26.56.02-39.83.03-15.45,6.34-24.4,21.12-29C822.66,2.11,828.84,1.28,834.88,0c4.22,0,8.44,0,12.66,0,.95.25,1.88.6,2.84.73,20.22,2.71,34.99,15.61,40.37,35.37.84,3.08,1.49,6.22,2.22,9.33v17.13Zm-70.05-33.9c.31,3.89.78,7.17.8,10.46.09,12.52.15,25.04-.05,37.56-.05,3.08,1.05,4.21,3.87,4.4,4.94.33,9.87.98,14.81,1.08,10.7.21,17.7-4.9,20.59-15.17,2.64-9.37,2.58-18.89.09-28.29-1.49-5.62-4.55-10.51-10.29-12.37-10.36-3.35-20.42-1.43-29.83,2.33Z"/>
      <path class="cls-1" d="m641.2,1.81c-1.07,6.97-2.09,13.69-3.2,20.91-1.55,0-3,0-4.45,0-18.62,0-37.23-.01-55.85.02-2.6,0-5.23.04-7.8.36-7.61.95-11.64,5.7-11.29,13.08.35,7.3,4.9,12.14,12.26,12.34,9.43.26,18.87-.01,28.29.19,4.19.09,8.46.41,12.54,1.28,15.61,3.34,25.52,15.83,25.29,31.81-.06,4.06-.48,8.21-1.46,12.14-3.17,12.78-12.52,18.94-24.62,21.32-6.16,1.21-12.55,1.81-18.83,1.83-41.33.09-82.66.17-123.99-.23-25.77-.25-42.83-16.99-44.29-42.68-.72-12.63-1.31-25.31,2.21-37.71,5.82-20.5,21.83-32.98,43.17-33.36,13.01-.23,26.03-.04,39.33-.04-1.05,7.13-2.05,13.97-3.12,21.27-5.01,0-9.94-.01-14.87,0-4.84.01-9.69-.09-14.52.11-8.75.36-15.28,4.56-18.59,12.6-1.85,4.5-3.12,9.53-3.28,14.36-.29,9.01-.4,18.17.95,27.03,1.56,10.25,8.6,16.33,18.9,16.95,12.12.73,24.3.54,36.46.58,26.68.09,53.37.1,80.05.1,1.98,0,3.99-.04,5.92-.41,8.07-1.51,12.69-7.47,12.03-15.31-.66-7.77-6.22-12.8-14.52-12.94-11.66-.2-23.34.06-34.98-.54-13.81-.72-23.82-8.49-27.42-20.32-4.17-13.7-.36-28.13,9.61-35.9,7.95-6.2,17.37-8.76,27.13-8.94,23.82-.43,47.65-.23,71.48-.27.35,0,.71.17,1.46.36Z"/>
      <g>
        <path class="cls-1" d="m892.98,297.91c-9.26-1.68-18.5-3.51-27.8-4.93-2.58-.39-5.39.25-8.03.74-11.28,2.09-22.56,3.43-33.9.44-13.47-3.56-21.12-13.03-21.58-26.75-.48-14.22,6.09-24.41,19.83-28.25,8.13-2.27,16.78-2.85,25.24-3.64,5.76-.53,11.61-.1,17.35-.1,2.78-11.81-2.65-19.17-14.39-19.38-12.92-.23-25.32,2.68-37.46,6.86-1.15.4-2.32.73-3.84,1.2-1.04-7.06-2.05-13.87-3.09-20.93,20.07-6.43,40.01-12.23,61.27-7.98,15.51,3.1,23.74,12.03,25.73,27.61.12.97.44,1.91.66,2.86v72.24Zm-39.14-45.41c-.03-.15-.06-.3-.09-.46-5.35.75-10.85.96-16.01,2.4-5.34,1.5-7.83,6.52-7.34,12.35.42,4.99,3.38,9.04,8.77,9.54,5.54.52,11.32.06,16.82-.92,9.22-1.64,9.22-1.96,9.13-11.41-.03-3.66.92-8.49-.99-10.61-1.68-1.87-6.73-.71-10.29-.88Z"/>
        <path class="cls-1" d="m567.21,294.65h-29.21v-4.57c0-18.62,0-37.24-.01-55.85,0-1.98,0-3.98-.24-5.95-.67-5.63-4.33-9.46-9.82-10.06-6.68-.72-13.07.41-18.37,3.15.19,8.2.49,15.93.53,23.67.08,15.14.02,30.29.02,45.43v4.19h-29.14v-4.28c0-18.62-.17-37.24.06-55.85.18-14.5-6.32-18.26-19.89-15.88-8.14,1.43-8.1,1.64-8.1,9.78,0,20.48,0,40.96,0,61.44v4.66h-29.65v-4.49c0-24.08,0-48.16,0-72.24,0-12.21,3.11-16.33,14.94-19.57,14.63-4,29.46-5.96,44.51-2.96,4.06.81,8.01,2.56,11.73,4.44,1.99,1,3.39,1.21,5.42.36,14.34-6.04,29.16-7.89,44.39-4.17,13.37,3.27,21.74,12.67,22.23,26.38.69,19.09.45,38.21.6,57.32.04,4.94,0,9.88,0,15.06Z"/>
        <path class="cls-1" d="m755.69,198.17c0-1.72,0-3.03,0-4.35,0-12.16.03-24.32-.03-36.47,0-1.94.25-3.29,2.55-3.66,8.8-1.41,17.58-2.94,26.92-4.52v4.19c0,39.95,0,79.9,0,119.84,0,11.44-2.51,14.94-13.41,18.29-14.21,4.37-28.76,5.43-43.41,3.25-21.18-3.15-35.35-19.1-37.04-41.35-.73-9.55-.43-19.06,2.05-28.43,4.98-18.8,18.37-29.96,37.78-30.35,6.59-.13,13.22,1.44,19.82,2.32,1.42.19,2.8.72,4.77,1.25Zm0,47.6v-14.5q0-13.29-13.44-14.48c-10.39-.92-17.96,4.12-20.6,14.17-2.44,9.27-2.42,18.67.06,27.93,2.76,10.29,9.81,15.48,20.45,15.28,3.2-.06,6.38-.77,9.58-1.01,3.02-.23,4.14-1.49,4.03-4.7-.27-7.55-.09-15.12-.09-22.68Z"/>
        <path class="cls-1" d="m646.38,235.45c.96-14.9-3.63-19.81-17.84-19.41-11.75.33-23.08,2.97-34.15,6.8-1.15.4-2.33.75-4.03,1.29-.95-6.66-1.92-13.1-2.71-19.57-.07-.61.85-1.75,1.53-1.97,15.98-5.13,32.1-9.63,49.15-8.74,2.6.13,5.21.4,7.77.84,19.19,3.32,28.28,13.85,28.43,33.46.18,22.34.05,44.69.04,67.03,0,.74-.08,1.47-.14,2.63-3.27-.56-6.43-.88-9.48-1.65-11.92-3.03-23.73-3.64-35.93-1.02-8.75,1.87-17.8,1.24-26.46-1.75-12.08-4.17-18.61-13.16-19-26.06-.39-13.16,5.34-22.4,17.1-27.36,8.02-3.38,16.54-4.26,25.13-4.46,6.79-.16,13.59-.03,20.59-.03Zm.6,17.79c-8.5,0-16.33-.51-24.06.15-7.05.6-11.08,6.1-10.74,12.86.32,6.26,4.85,11,11.95,10.65,7.1-.34,14.13-2.13,21.16-3.43.66-.12,1.59-1.29,1.61-1.99.13-6.06.07-12.12.07-18.24Z"/>
      </g>
      <rect class="cls-2" width="377.6" height="125.12"/>
      <rect class="cls-3" y="170.56" width="377.6" height="125.12"/>
    </g>
  </g>
</svg>