<?xml version="1.0" encoding="UTF-8"?>
<svg id="Layer_2" data-name="Layer 2" xmlns="http://www.w3.org/2000/svg" viewBox="0 0 450 132.31">
  <defs>
    <style>
      .cls-1 {
        fill: #502c84;
      }

      .cls-2 {
        fill: #02aa7c;
      }
    </style>
  </defs>
  <g id="Layer_1-2" data-name="Layer 1">
    <g>
      <path class="cls-2" d="m291.86,97.71V27.82h11.85v5.6c3.61-4.51,8.95-6.96,15.59-6.96,13.66,0,23.45,10.89,23.45,26.47s-9.86,26.67-23.45,26.67c-6.7,0-11.98-2.58-15.59-7.09v25.19h-11.85Zm11.85-51.21v12.88c2.51,5.22,7.02,9.02,13.53,9.02,7.86,0,13.14-5.86,13.14-15.52s-5.28-15.33-13.14-15.33c-6.51.06-11.02,3.61-13.53,8.95"/>
      <path class="cls-2" d="m350.42,63.77c0-8.5,5.28-14.43,14.04-15.52l20.16-2.58v-2.51c0-3.03-1.55-4.64-4.38-4.64h-25.32v-10.76h25.77c10.24,0,15.85,5.02,15.85,13.91v36.39h-11.98v-6.12c-3.48,4.9-9.21,7.67-16.62,7.67-10.43,0-17.52-6.38-17.52-15.85m20.42,6.18c6.05,0,11.66-3.41,13.72-8.44v-6.31l-15.39,2.13c-4.25.58-6.64,2.83-6.64,6.51,0,3.93,3.03,6.12,8.31,6.12"/>
      <path class="cls-2" d="m405.17,86.96h8.63c3.29,0,4.77-1.35,5.86-4.45l1.55-4.45-18.29-50.31h12.37l11.4,35.04h.26l10.89-35.04h12.17l-20.03,57.78c-2.7,7.92-6.31,12.17-15.14,12.17h-9.66v-10.76h0Z"/>
      <path class="cls-1" d="m43.48,132.31c13.78,0,25.12-4.32,32.59-11.53,5.6-5.54,8.89-13.01,8.89-21.64,0-7.79-2.9-14.82-8.25-20.16s-13.01-9.28-22.67-11.14l-15.85-3.09c-6.57-1.22-10.31-4.51-10.31-9.08,0-5.99,5.8-10.11,15.07-10.11,5.8,0,10.76,1.87,14.04,5.15,2.06,2.26,3.48,5.15,3.93,8.44l22.87-5.15c-.64-6.57-3.74-12.37-8.44-17.13-7.54-7.41-19.07-12.11-32.66-12.11-12.56,0-23.06,4.12-30.34,10.69-6.18,5.8-9.66,13.59-9.66,22.29,0,7.6,2.45,14.04,7.41,18.94,4.96,4.96,12.17,8.63,21.64,10.95l15.65,3.74c7.86,1.87,11.34,4.77,11.34,9.92,0,6.38-5.8,10.11-15.27,10.11-6.83,0-12.37-2.26-15.85-5.99-2.45-2.45-3.93-5.8-4.12-9.47L0,101.07c.64,7.02,3.93,13.2,8.89,18.17,7.79,8.18,20.42,13.08,34.59,13.08m174.05,0c15.27,0,26.99-5.54,35.04-13.4,6.38-6.18,10.31-13.4,12.37-20.81l-24.09-8.05c-1.03,3.74-3.09,7.67-6.38,10.69-3.93,3.74-9.28,6.38-16.94,6.38-7.02,0-13.59-2.7-18.36-7.41-4.77-4.96-7.66-12.17-7.66-21.26s2.9-16.3,7.66-21.26c4.7-4.77,11.14-7.21,18.16-7.21,7.41,0,12.56,2.45,16.3,6.18,3.09,3.09,4.96,7.02,6.18,10.95l24.54-8.24c-1.87-7.21-5.8-14.43-11.53-20.42-8.24-8.05-20.23-13.79-36.07-13.79-14.62,0-27.83,5.54-37.3,15.07-9.47,9.66-15.27,23.12-15.27,38.78s5.99,29.05,15.65,38.78c9.4,9.47,22.8,15.01,37.68,15.01m-83.29,0c10.69,0,18.36-3.29,21.64-6.18v-22.29c-2.51,1.87-7.41,4.12-13.85,4.12-4.57,0-7.86-1.03-10.31-3.29-2.06-2.06-3.09-5.6-3.09-10.31V0h-27.25v27.83h54.43v26.41h-54.43v46.83c0,9.47,2.9,17.13,8.05,22.48,5.8,5.67,14.3,8.76,24.8,8.76"/>
    </g>
  </g>
</svg>